<?xml version="1.0" encoding="iso-8859-1"?>
<!-- Generator: Adobe Illustrator 19.0.0, SVG Export Plug-In . SVG Version: 6.00 Build 0)  -->
<svg version="1.1" id="Layer_1" xmlns="http://www.w3.org/2000/svg" xmlns:xlink="http://www.w3.org/1999/xlink" x="0px" y="0px"
	 viewBox="0 0 512 512" style="enable-background:new 0 0 512 512;" xml:space="preserve">
<path style="fill:#FFEBD2;" d="M328.218,456c0,26.51-18.981,48-72,48c-53.02,0-72-21.49-72-48"/>
<path style="fill:#FFA54B;" d="M455.759,8c-28.295,0-52.158,56.877-89.177,63.347C338.816,56.814,302.851,48,256.218,48
	c-46.672,0-82.661,8.829-110.436,23.385C108.546,65.239,84.61,8,56.218,8c-33,0-49,66-8,88
	c21.48,11.526,37.559,12.687,46.948,18.052c-9.454,13.804-17.115,30.012-23.071,47.232C60.333,185.23,53.759,211.892,53.759,240
	c0,103.829,89.543,188,200,188c104.722,0,190.632-75.661,199.271-172h3.188c0-46.011-7.564-100.469-39.085-142.132
	c9.434-5.21,25.391-6.473,46.625-17.868C504.759,74,488.759,8,455.759,8z"/>
<g>
	<path style="fill:#FF8C46;" d="M140.759,70c-25.5-3.5-61.977-75.122-96-60c-4.5,2-26.894,24.476-18.981,55.482
		c7.912,31.006,30.981,35.018,69.389,48.57L140.759,70z"/>
	<path style="fill:#FF8C46;" d="M371.099,69.948c25.5-3.5,61.977-75.121,96-60c4.5,2,26.894,24.476,18.981,55.482
		c-7.913,31.006-30.981,35.018-69.389,48.569L371.099,69.948z"/>
</g>
<g>
	<path style="fill:#FFEBD2;" d="M62.383,190.336C29.552,244,24.218,288,24.218,288h16c0,0-16,39.5-16,64l24-8c0,0-16,36-16,64
		c0,0.5,24-8,24-8s-12,27-8,40c0.147,0.478,24-8,24-8s-7,18.667,0,32l40-16c0,0,7.478,24.478,8,24c17.5-16,40-24,40-24"/>
	<path style="fill:#FFEBD2;" d="M450.053,190.336C482.885,244,488.218,288,488.218,288h-16c0,0,16,39.5,16,64l-24-8c0,0,16,36,16,64
		c0,0.5-24-8-24-8s12,27,8,40c-0.147,0.478-24-8-24-8s7,18.667,0,32l-40-16c0,0-7.478,24.478-8,24c-17.5-16-40-24-40-24"/>
</g>
<path style="fill:#FF8C46;" d="M194.132,256c-30.28,43.076-57.914,101.533-57.914,140c0,33.137,26.863,60,60,60
	c11.333,0,49.072-1.438,60-16c10.928,14.562,46.667,16,60,16c33.137,0,60-26.863,60-60c0-38.148-27.724-96.787-58.063-140"/>
<path style="fill:#FFDEB7;" d="M303.727,358c-18.484,0-35.128,5.719-46.968,14.857C244.918,363.719,228.275,358,209.791,358
	c-35.917,0-65.032,21.491-65.032,48c0,26.51,29.116,48,65.032,48c14.991,0,28.771-3.762,39.761-10.059
	c4.541-2.602,9.872-2.602,14.413,0c10.989,6.297,24.77,10.059,39.761,10.059c35.916,0,65.032-21.49,65.032-48
	C368.759,379.491,339.643,358,303.727,358z"/>
<path style="fill:#464655;" d="M277.291,406.066c-13.072,12.434-29.572,12.684-42.145,0l-13.855-14.225
	c-11.59-13.246-6.672-24.083,10.928-24.083h48c17.6,0,22.518,10.837,10.928,24.083L277.291,406.066z"/>
<g>

		<ellipse transform="matrix(-0.6042 -0.7968 0.7968 -0.6042 67.9675 515.5172)" style="fill:#FFEBD2;" cx="162.014" cy="240.879" rx="35.999" ry="43.999"/>

		<ellipse transform="matrix(-0.6042 0.7968 -0.7968 -0.6042 755.865 106.3559)" style="fill:#FFEBD2;" cx="351.519" cy="240.899" rx="35.999" ry="43.999"/>
</g>
<path d="M160.218,224c-8.822,0-16,7.178-16,16c0,8.823,7.178,16,16,16s16-7.177,16-16C176.218,231.178,169.04,224,160.218,224z"/>
<path d="M352.218,224c-8.822,0-16,7.178-16,16c0,8.823,7.178,16,16,16s16-7.177,16-16C368.218,231.178,361.04,224,352.218,224z"/>
<path d="M483.748,296h4.47c2.29,0,4.47-0.981,5.987-2.694c1.519-1.713,2.23-3.995,1.955-6.269
	c-0.226-1.854-5.854-45.758-38.616-99.776c-5.707-26.777-15.061-50.074-28.008-69.697c1.448-0.453,2.983-0.91,4.584-1.386
	c8.966-2.67,20.124-5.992,33.421-13.128c26.403-14.167,32.411-43.631,26.651-66.545C488.619,14.329,473.532,0,455.759,0
	c-17.292,0-31.335,14.943-46.202,30.763c-13.084,13.923-26.591,28.296-41.855,32.168C337.392,47.714,299.903,40,256.218,40
	c-43.741,0-81.269,7.732-111.598,22.987c-15.404-3.742-29.014-18.216-42.197-32.237C87.554,14.937,73.509,0,56.218,0
	c-17.773,0-32.86,14.329-38.434,36.504c-5.76,22.915,0.248,52.378,26.651,66.545c13.296,7.134,24.452,10.458,33.417,13.128
	c1.938,0.577,3.737,1.113,5.391,1.638c-12.231,20.286-20.747,43.569-26.32,66.682c-0.515,0.482-0.979,1.033-1.365,1.664
	c-33.356,54.521-39.056,99.009-39.282,100.876c-0.275,2.273,0.436,4.555,1.954,6.269c1.519,1.713,3.698,2.694,5.987,2.694h4.47
	c-4.919,13.948-12.47,38.25-12.47,56c0,2.571,1.236,4.986,3.322,6.491c2.087,1.503,4.769,1.912,7.208,1.099l7.873-2.625
	C29.887,370.579,24.218,390.528,24.218,408c0,2.598,1.269,5.046,3.39,6.545c3.431,2.425,6.452,1.444,11.025-0.038
	c1.184-0.383,2.618-0.86,4.29-1.425c-2.79,9.47-4.909,20.957-2.349,29.278c0.643,2.083,2.119,3.826,4.067,4.803
	c3.139,1.575,5.594,0.778,10.053-0.665c1.715-0.554,3.948-1.303,6.656-2.23c-0.705,7.161-0.241,15.785,3.784,23.451
	c1.905,3.63,6.246,5.232,10.055,3.709l31.956-12.782c0.378,1.204,0.776,2.461,1.176,3.717c1.126,3.531,2.058,6.365,2.77,8.424
	c1.497,4.335,2.679,7.758,6.994,8.937c0.693,0.189,1.401,0.282,2.105,0.282c1.982,0,3.931-0.734,5.426-2.101
	c16.03-14.657,37.079-22.294,37.282-22.367c0.102-0.037,0.197-0.083,0.297-0.123c4.169,2.326,8.603,4.229,13.25,5.645
	c1.221,14.489,7.727,26.604,19.034,35.24c13.641,10.417,34.077,15.7,60.739,15.7c26.663,0,47.098-5.283,60.738-15.701
	c11.307-8.636,17.813-20.75,19.034-35.24c4.647-1.416,9.081-3.318,13.25-5.645c0.098,0.039,0.19,0.084,0.29,0.121
	c0.211,0.075,21.26,7.712,37.291,22.37c1.495,1.366,3.443,2.1,5.425,2.1c0.704,0,1.413-0.093,2.107-0.282
	c4.313-1.18,5.495-4.603,6.992-8.937c0.711-2.059,1.643-4.893,2.769-8.424c0.4-1.255,0.798-2.513,1.177-3.716l31.956,12.782
	c3.808,1.524,8.148-0.079,10.054-3.709c4.025-7.667,4.489-16.291,3.784-23.451c2.709,0.927,4.942,1.676,6.657,2.23
	c4.46,1.444,6.917,2.239,10.056,0.663c1.949-0.979,3.425-2.723,4.066-4.808c2.56-8.317,0.44-19.802-2.35-29.271
	c1.672,0.565,3.106,1.042,4.289,1.425c4.573,1.482,7.596,2.462,11.025,0.038c2.122-1.499,3.39-3.947,3.39-6.545
	c0-17.472-5.669-37.421-10.403-51.035l7.874,2.625c2.438,0.813,5.12,0.404,7.207-1.099c2.086-1.504,3.322-3.919,3.322-6.491
	C496.218,334.25,488.667,309.948,483.748,296z M256.218,496c-26.695,0-58.062-5.814-63.241-32.082
	c1.074,0.051,2.154,0.082,3.241,0.082c13.543,0,43.696-1.404,59.97-13.046C271.604,462.15,299.489,464,316.218,464
	c1.087,0,2.167-0.031,3.242-0.082C314.28,490.186,282.914,496,256.218,496z M240.877,400.484l-13.698-14.063
	c-3.883-4.491-4.434-7.514-4.085-8.281c0.352-0.777,3.046-2.38,9.124-2.38h48c6.079,0,8.773,1.604,9.125,2.38
	c0.349,0.768-0.202,3.791-4.085,8.281l-13.586,13.949C261.669,409.809,250.148,409.836,240.877,400.484z M466.748,336.411
	c-3.008-1.003-6.322-0.135-8.453,2.212c-2.131,2.347-2.675,5.73-1.388,8.626c0.132,0.297,11.402,25.877,14.52,49.583
	c-3.87-1.325-8.338-2.885-12.538-4.373c-3.015-1.068-6.373-0.238-8.543,2.108c-2.171,2.347-2.736,5.761-1.438,8.681
	c3.168,7.127,6.766,17.885,7.838,26.046c-4.147-1.417-9.168-3.17-13.848-4.833c-2.935-1.042-6.203-0.289-8.385,1.932
	c-2.182,2.219-2.878,5.501-1.785,8.416c1.116,2.977,3.234,11.14,2.392,18.535l-31.93-12.771c-2.078-0.832-4.409-0.754-6.429,0.213
	c-2.019,0.967-3.54,2.736-4.193,4.877c-1.313,4.296-2.778,8.982-4.063,12.985c-8.963-6.585-18.019-11.35-24.475-14.35
	c12.457-12.332,20.188-29.427,20.188-48.298c0-2.261-0.105-4.59-0.279-6.963c30.131-16.15,58.396-48.572,71.259-82.177
	c1.58-4.126-0.484-8.752-4.611-10.332c-4.125-1.58-8.751,0.484-10.331,4.611c-10.669,27.871-34.033,55.712-58.776,70.867
	c-8.018-38.697-32.48-85.996-56.777-120.603c-2.539-3.616-7.529-4.489-11.145-1.951c-3.616,2.539-4.489,7.528-1.95,11.145
	c27.265,38.835,56.609,97.772,56.609,135.403c0,28.673-23.327,52-52,52c-24.693,0-44.521-4.292-52-11.078V422.46
	c6.502-1.62,12.855-5.147,18.586-10.598c0.074-0.07,0.146-0.142,0.217-0.214l13.856-14.225c0.1-0.102,0.196-0.207,0.29-0.313
	c10.517-12.021,8.74-21.188,6.746-25.583s-7.725-11.769-23.695-11.769h-48c-15.97,0-21.7,7.374-23.694,11.768
	c-1.994,4.396-3.771,13.563,6.746,25.583c0.094,0.106,0.19,0.211,0.29,0.313l13.904,14.274c5.647,5.697,12.075,9.321,18.754,10.892
	v14.326c-8.475,7.601-32.243,11.085-52,11.085c-28.673,0-52-23.327-52-52c0-38.05,28.356-95.421,56.459-135.398
	c2.541-3.615,1.671-8.605-1.944-11.146c-3.612-2.541-8.604-1.671-11.146,1.944c-24.269,34.525-48.703,81.84-56.668,120.667
	c-25.147-15.142-48.907-43.039-59.743-70.961c-1.598-4.119-6.233-6.163-10.352-4.564s-6.163,6.233-4.564,10.353
	c13.043,33.612,41.695,66.037,72.232,82.174c-0.17,2.36-0.274,4.679-0.274,6.932c0,18.871,7.732,35.967,20.189,48.298
	c-6.456,3-15.511,7.765-24.474,14.35c-1.285-4.003-2.751-8.689-4.063-12.986c-0.654-2.141-2.176-3.909-4.194-4.876
	s-4.351-1.044-6.428-0.213l-31.938,12.775c-0.84-7.302,1.222-15.344,2.4-18.539c1.093-2.914,0.396-6.197-1.785-8.416
	c-2.183-2.221-5.453-2.975-8.385-1.932c-4.677,1.662-9.695,3.414-13.842,4.83c1.078-8.153,4.671-18.911,7.831-26.043
	c1.299-2.92,0.733-6.334-1.438-8.681c-2.171-2.347-5.53-3.176-8.544-2.108c-4.198,1.487-8.666,3.046-12.535,4.373
	c3.122-23.672,14.386-49.288,14.517-49.583c1.287-2.896,0.743-6.279-1.388-8.626c-2.131-2.347-5.447-3.214-8.452-2.212
	l-12.484,4.162c3.38-22.075,14.299-49.249,14.43-49.571c0.997-2.466,0.704-5.268-0.782-7.473c-1.488-2.206-3.974-3.529-6.634-3.529
	h-6.413c2.081-9.621,6.524-26.33,15.368-46.861c-0.646,8.028-0.955,15.71-0.955,22.861c0,4.418,3.582,8,8,8c4.419,0,8-3.582,8-8
	c0-50.178,14.739-104.122,37.549-137.427c1.263-1.844,1.696-4.131,1.197-6.31c-0.5-2.178-1.888-4.048-3.828-5.157
	c-4.692-2.682-10.264-4.341-16.715-6.263c-8.27-2.463-18.561-5.529-30.42-11.893c-18.81-10.093-22.945-31.655-18.699-48.546
	C36.354,28.257,44.625,16,56.218,16c10.374,0,22.116,12.489,34.549,25.71c10.322,10.979,21.595,22.965,34.733,30.53
	c-7.32,2.304-13.734,2.451-18.95,0.342c-4.098-1.655-8.759,0.324-10.415,4.419c-1.656,4.096,0.322,8.759,4.418,10.415
	c3.683,1.488,8.373,2.63,14.104,2.63c9.041,0,20.671-2.85,34.988-11.652C178.074,63.536,213.927,56,256.218,56
	c42.329,0,78.212,7.548,106.653,22.435c0.79,0.413,1.638,0.687,2.507,0.819c13.664,8.124,24.821,10.793,33.559,10.793
	c5.729,0,10.423-1.142,14.104-2.63c4.096-1.656,6.074-6.319,4.418-10.415c-1.655-4.097-6.317-6.074-10.415-4.419
	c-5.458,2.208-12.222,1.961-19.972-0.663c12.888-7.586,23.979-19.385,34.143-30.2C433.646,28.493,445.387,16,455.759,16
	c11.593,0,19.863,12.257,22.916,24.404c4.246,16.892,0.11,38.454-18.699,48.546c-11.86,6.365-22.152,9.429-30.422,11.892
	c-6.271,1.868-11.687,3.48-16.288,6.022c-2.032,1.122-3.476,3.071-3.958,5.341c-0.482,2.27,0.045,4.638,1.445,6.488
	c24.86,32.859,37.465,79.056,37.465,137.306c0,4.418,3.582,8,8,8c4.419,0,8-3.582,8-8c0-7.531-0.209-14.875-0.615-22.037
	c8.584,20.123,12.946,36.531,15.014,46.037h-6.398c-2.66,0-5.146,1.323-6.633,3.529s-1.78,5.007-0.782,7.473
	c0.13,0.322,11.05,27.496,14.43,49.571L466.748,336.411z"/>
<path d="M168.224,104.327c1.128,0,2.274-0.241,3.365-0.748C192.901,93.679,223.748,88,256.218,88c32.471,0,63.317,5.679,84.63,15.58
	c4.009,1.861,8.765,0.123,10.626-3.885s0.122-8.764-3.885-10.626C324.238,78.222,290.936,72,256.218,72
	c-34.717,0-68.02,6.222-91.37,17.069c-4.007,1.862-5.746,6.619-3.885,10.625C162.317,102.611,165.206,104.327,168.224,104.327z"/>
<path d="M339.858,121.2c-21.391-10.931-51.877-17.2-83.641-17.2c-31.763,0-62.249,6.27-83.64,17.2
	c-3.935,2.011-5.494,6.831-3.484,10.765c1.415,2.769,4.221,4.362,7.131,4.362c1.225,0,2.469-0.283,3.634-0.879
	C199.07,125.631,226.902,120,256.218,120c29.316,0,57.148,5.631,76.36,15.448c3.934,2.01,8.754,0.451,10.764-3.483
	C345.353,128.031,343.793,123.211,339.858,121.2z"/>
<path d="M332.168,153.367C312.729,142.33,285.047,136,256.218,136c-28.828,0-56.511,6.33-75.95,17.367
	c-3.842,2.182-5.188,7.065-3.007,10.907c2.183,3.842,7.065,5.188,10.907,3.007C205.271,157.57,230.075,152,256.218,152
	c26.144,0,50.946,5.57,68.05,15.281c1.248,0.708,2.604,1.044,3.943,1.044c2.784,0,5.49-1.457,6.964-4.051
	C337.356,160.432,336.01,155.549,332.168,153.367z"/>
<path d="M96.214,248.243c0.135-4.416-3.337-8.105-7.754-8.239c-4.408-0.122-8.104,3.338-8.238,7.754
	c-1.068,35.272,8.296,53.798,17.158,68.395c1.505,2.479,4.143,3.849,6.846,3.849c1.414,0,2.847-0.375,4.145-1.163
	c3.776-2.292,4.979-7.213,2.687-10.99C103.033,294.633,95.278,279.146,96.214,248.243z"/>
<path d="M423.896,240.004c-4.416,0.134-7.888,3.823-7.754,8.239c0.937,30.902-6.819,46.39-14.842,59.605
	c-2.293,3.777-1.091,8.698,2.687,10.99c1.297,0.788,2.729,1.163,4.144,1.163c2.703,0,5.341-1.37,6.847-3.849
	c8.861-14.597,18.227-33.123,17.157-68.395C432.001,243.341,428.306,239.877,423.896,240.004z"/>
<path d="M129.093,186.257c-8.615-12.388-21.635-31.108-17.769-38.582c2.029-3.924,0.493-8.751-3.431-10.781
	c-3.925-2.03-8.751-0.494-10.781,3.43c-8.297,16.041,6.123,36.774,18.845,55.067c4.802,6.904,12.056,17.334,12.261,20.628
	c0.012,4.409,3.589,7.979,8,7.979c4.419,0,8-3.582,8-8C144.218,208.006,137.543,198.408,129.093,186.257z"/>
<path d="M413.785,140.325c-2.03-3.924-6.856-5.461-10.781-3.43c-3.925,2.03-5.461,6.856-3.431,10.781
	c3.866,7.473-9.154,26.194-17.769,38.582c-8.45,12.151-15.125,21.75-15.125,29.743c0,4.418,3.582,8.016,8,8.016s8-3.567,8-7.985
	c0.191-3.284,7.455-13.728,12.261-20.639C407.662,177.099,422.082,156.365,413.785,140.325z"/>
<g>
</g>
<g>
</g>
<g>
</g>
<g>
</g>
<g>
</g>
<g>
</g>
<g>
</g>
<g>
</g>
<g>
</g>
<g>
</g>
<g>
</g>
<g>
</g>
<g>
</g>
<g>
</g>
<g>
</g>
</svg>
